<svg xmlns="http://www.w3.org/2000/svg" width="708" height="32" viewBox="0 0 708 32" fill="none"><defs><linearGradient id="Gradient-0" x1="17" y1="2.5" x2="17" y2="32" gradientUnits="userSpaceOnUse"><stop offset="0" stop-color="#32ef52"/><stop offset="1" stop-color="#32ef52" stop-opacity="0"/></linearGradient><linearGradient id="Gradient-1" x1="351" y1="3" x2="349.5" y2="31" gradientUnits="userSpaceOnUse"><stop offset="0" stop-color="#ffd13c"/><stop offset="1" stop-color="#ffd13c" stop-opacity="0"/></linearGradient><linearGradient id="Gradient-2" x1="691" y1="5.5" x2="693" y2="30" gradientUnits="userSpaceOnUse"><stop offset="0" stop-color="#24ffcc"/><stop offset="1" stop-color="#24ffcc" stop-opacity="0"/></linearGradient><clipPath id="ClipPath-1"><rect width="32" height="32" fill="#fff"/></clipPath><clipPath id="ClipPath-2"><rect x="338" width="32" height="32" fill="#fff"/></clipPath><clipPath id="ClipPath-3"><rect x="676" width="32" height="32" fill="#fff"/></clipPath></defs><style>
@keyframes a0_t { 0% { transform: translate(0px,0px); } 35.235% { transform: translate(0px,3px); } 100% { transform: translate(0px,3px); } }
@keyframes a0_o { 0% { opacity: 1; } 35.235% { opacity: 0; } 100% { opacity: 0; } }
@keyframes a1_t { 0% { transform: translate(0px,0px); } 29.353% { transform: translate(0px,0px); } 64.647% { transform: translate(0px,3px); } 100% { transform: translate(0px,3px); } }
@keyframes a1_o { 0% { opacity: 1; } 29.353% { opacity: 1; } 64.647% { opacity: 0; } 100% { opacity: 0; } }
@keyframes a2_t { 0% { transform: translate(0px,0px); } 52.882% { transform: translate(0px,0px); } 100% { transform: translate(0px,3px); } }
@keyframes a2_o { 0% { opacity: 1; } 52.882% { opacity: 1; } 100% { opacity: 0; } }
</style><g clip-path="url(#ClipPath-1)" transform="translate(16.7,17) translate(-16.7,-17)" style="animation: 1.7s linear infinite both a0_t, 1.7s linear infinite both a0_o;"><path d="M16.4 32.2l15.2-30.1l-14.9 7.6l-14.9-8l14.6 30.5Z" fill="url(#Gradient-0)"/></g><g clip-path="url(#ClipPath-2)" transform="translate(354.7,17) translate(-354.7,-17)" style="animation: 1.7s linear infinite both a1_t, 1.7s linear infinite both a1_o;"><path d="M354.4 32.2l15.2-30.1l-14.9 7.6l-14.9-8l14.6 30.5Z" fill="url(#Gradient-1)"/></g><g clip-path="url(#ClipPath-3)" transform="translate(692.7,17) translate(-692.7,-17)" style="animation: 1.7s linear infinite both a2_t, 1.7s linear infinite both a2_o;"><path d="M692.4 32.2l15.2-30.1l-14.9 7.6l-14.9-8l14.6 30.5Z" fill="url(#Gradient-2)"/></g></svg>