<svg xmlns="http://www.w3.org/2000/svg" viewBox="0 0 180 56" fill="none" height="56" width="180"><defs><linearGradient id="Gradient-0" x1="71.6" y1="0" x2="71.6" y2="28" gradientUnits="userSpaceOnUse"><stop offset="0" stop-color="#28efef" stop-opacity=".56"/><stop offset="1" stop-color="#28efef" stop-opacity=".1"/></linearGradient><linearGradient id="Gradient-1" x1="13.6" y1="4.2" x2="13.6" y2="23.8" gradientUnits="userSpaceOnUse"><stop offset="0" stop-color="#ff1818"/><stop offset="1" stop-color="#ffc24b"/></linearGradient><linearGradient id="Gradient-2" x1="79" y1="0" x2="79" y2="28" gradientUnits="userSpaceOnUse"><stop offset=".5" stop-color="#fff34b"/><stop offset="1" stop-color="#ff964b"/></linearGradient></defs><style>
@keyframes a1_t { 0% { transform: translate(86.2px,28px) skewX(16deg) skewY(0deg); animation-timing-function: cubic-bezier(.4,.2,.7,.5); } 31.25% { transform: translate(86.2px,28px) skewX(-5deg) skewY(0deg); animation-timing-function: cubic-bezier(.4,.3,.7,.6); } 50% { transform: translate(86.2px,28px) skewX(0deg) skewY(0deg); } 100% { transform: translate(86.2px,28px) skewX(0deg) skewY(0deg); } }
@keyframes a0_t { 0% { transform: scale(.7,.7) translate(-67px,-14px); animation-timing-function: cubic-bezier(.2,.7,.6,1.1); } 31.25% { transform: scale(1.3,1.3) translate(-67px,-14px); animation-timing-function: cubic-bezier(.4,.7,1,1); } 50% { transform: scale(1,1) translate(-67px,-14px); } 100% { transform: scale(1,1) translate(-67px,-14px); } }
</style><g style="animation: 1.6s linear both a1_t;"><g transform="translate(86.2,28) skewX(16) scale(.658,.658) translate(-67,-14)" style="animation: 1.6s linear both a0_t;"><rect width="140" height="28" rx="14" fill="url(#Gradient-0)"/><ellipse cx="13.5" cy="16" rx="5.5" ry="5" fill="#ffe249"/><path d="M14.3 4.5c-0.2-0.2-0.4-0.2-0.7-0.2c-0.2-0.1-0.5 0-0.7 .2c-2.4 2.3-7.2 6.6-7.2 11.4c0 4.3 3.6 7.8 7.9 7.8c4.4 .1 7.9-3.5 7.9-7.8c0-4.8-4.7-9-7.2-11.4Zm2 10.7l-3 4.2c-0.2 .2-0.6 .1-0.6-0.2v-2.6c0-0.1 0-0.2-0.1-0.2c0-0.1-0.1-0.1-0.2-0.1h-1.2c-0.1 0-0.1 0-0.2-0.1c0 0-0.1 0-0.1-0.1c0-0.1 0-0.1 0-0.2c0 0 0-0.1 0-0.1l3-4.2c.2-0.2 .6-0.1 .6 .2v2.6c0 0 0 .1 0 .1c.1 0 .1 .1 .1 .1c0 0 .1 .1 .1 .1c.1 0 .1 0 .1 0h1.2c.3 0 .5 .3 .3 .5Z" fill="url(#Gradient-1)"/><path d="M28.2 10.4c.9 1 1.8 2 2.6 3.1c.4-1.4 .7-2.8 .8-4.3h-4.5v-1.5h6v1.2c-0.1 2.2-0.5 4.3-1.2 6.1c.7 1 1.3 1.9 1.9 2.9l-1.2 1.1c-0.4-0.7-0.9-1.5-1.5-2.3c-0.8 1.7-2 3.2-3.4 4.5l-1.1-1.2c1.5-1.4 2.7-3 3.5-4.8c-0.9-1.2-1.9-2.5-3-3.8l1.1-1Zm5.7-2.7h6.7v1.4c-0.3 2.5-1.2 4.8-2.5 7.1c.9 1.4 2 2.7 3.3 4l-1.1 1.3c-1.2-1.3-2.3-2.6-3.1-3.9c-1 1.3-2.2 2.6-3.5 3.9l-1-1.3c1.4-1.3 2.7-2.6 3.7-4c-1.3-2.3-2-4.6-2.1-7h-0.4v-1.5Zm1.8 1.5c.1 1.9 .7 3.7 1.5 5.5c1-1.7 1.7-3.6 2-5.5h-3.5Zm17.8 0h-3.9v-1.4h9.1v1.4h-3.8v10.4h4.3v1.5h-10.4v-1.5h4.7v-10.4Zm-7.4-2.1c1.1 .7 2 1.5 2.8 2.2l-1 1.1c-0.7-0.7-1.7-1.5-2.9-2.3l1.1-1Zm-0.5 3.8c1.2 .8 2.1 1.5 2.9 2.3l-1.1 1.1c-0.7-0.8-1.6-1.5-2.8-2.4l1-1Zm1.8 4.3l1.3 .5c-0.8 2.1-1.6 4-2.5 5.8l-1.4-0.7c1-1.8 1.8-3.7 2.6-5.6Zm28.4-6.5v12.7h-1.5v-0.9h-8.9v.9h-1.5v-12.7h11.9Zm-10.4 10.3h8.9v-8.8h-8.9v8.8Zm15.4-8.2h5.3v1.2c-0.8 3.6-2.4 6.3-4.8 8.1l-1-1.3c2.1-1.5 3.5-3.7 4.3-6.5h-3.8v-1.5Zm12.3-1.5l1.2 .9c-1.2 1.5-2.5 2.8-3.8 3.8c1.2 2 2.8 3.6 4.8 4.9l-1 1.4c-2.6-2.1-4.5-4.4-5.6-7v6.6c0 1.1-0.6 1.7-1.6 1.7h-2.1l-0.4-1.5c.7 .1 1.4 .1 2 .1c.3 0 .5-0.2 .5-0.7v-12.7h1.6v3.4c.3 .9 .7 1.8 1.1 2.7c1.2-1.1 2.3-2.3 3.3-3.6Zm8 4.5v2h3.6v-2h-3.6Zm3.6 3.4h-3.6v1.3h-1.5v-9.5h5.1v-2.1h1.5v2.1h5.1v8.2h-5.1v1.6c0 .8 .3 1.2 1 1.2h3.5c.3 0 .5-0.1 .7-0.3c.1-0.1 .2-0.7 .3-1.7l1.4 .5c-0.1 1.4-0.3 2.2-0.5 2.5c-0.3 .3-0.9 .4-1.7 .4h-4.1c-1.4 0-2.1-0.8-2.1-2.3v-1.9Zm1.5-1.4h3.6v-2h-3.6v2Zm3.6-3.4v-2h-3.6v2h3.6Zm-5.1-2h-3.6v2h3.6v-2Zm20.7-3.5h1.5v2.7h3.9v1.4h-3.9v2.8h3.3v7.8h-1.5v-1h-4.2v1h-1.4v-7.8h2.3v-6.9Zm-0.9 12.3h4.2v-4.1h-4.2v4.1Zm-8.1-9.8h2.5c-0.2-0.8-0.4-1.5-0.7-2.2l1.6-0.2c.2 .7 .3 1.5 .5 2.4h2.5v1.5h-6.4v-1.5Zm1.7 2.2c.4 1.8 .7 4 1 6.3l-1.2 .3c-0.3-2.1-0.7-4.2-1.1-6.2l1.3-0.4Zm4.4 6.3v1.5c-1.8 .5-3.7 .9-5.8 1.2l-0.3-1.4c1.1-0.2 2.2-0.4 3.3-0.6c.5-2.2 .8-4.6 1.1-7.1l1.4 .2c-0.2 2.4-0.6 4.6-1.1 6.6c.5-0.2 1-0.3 1.4-0.4Z" fill="url(#Gradient-2)"/></g></g></svg>