<svg xmlns="http://www.w3.org/2000/svg" width="792" height="790" viewBox="0 0 792 790" fill="none"><style>
@keyframes a0_t { 0% { transform: translate(396px,395px) rotate(0deg) translate(-396px,-395px); } 100% { transform: translate(396px,395px) rotate(360deg) translate(-396px,-395px); } }
@keyframes a1_t { 0% { transform: translate(396.5px,397.7px) rotate(0deg) translate(-396.5px,-397.7px); } 100% { transform: translate(396.5px,397.7px) rotate(-44deg) translate(-396.5px,-397.7px); } }
</style><path fill-rule="evenodd" clip-rule="evenodd" d="M207.8 54.7l-6.5-2.6c66.2-37.5 142.1-55 218.5-50.5c76.4 4.4 150.1 30.7 212.4 75.7l-8.8 1.5c99.6 70.9 164.5 187.4 164.5 318.9c0 1.5 0 2.9 0 4.4l4.1-4.1c0 76.8-21.9 152-63 216.5c-41.2 64.6-99.8 115.8-169 147.5l2.4-9.7c-50.3 23.6-106.6 36.8-165.9 36.8c-59.3 0-115.5-13.2-165.9-36.8l1.4 5.7c-69.2-31.7-127.8-82.9-169-147.5c-41.1-64.5-63-139.7-63-216.5l5.1 5c0-0.4 0-0.8 0-1.3c0-147.7 81.9-276.4 202.7-343Zm407.9 25.4c-44.5-32.2-120.1-61.7-193.1-66c-72.9-4.2-142.9 8.3-206.1 44.1l-5.1-2c-121.1 65.7-203.3 194-203.3 341.5c0 1.5 0 2.9 0 4.3l3.7 3.7c0 54.9 20.5 133.5 59.8 195.2c39.2 61.6 90.4 110.9 156.4 141.2l1.6 6.5c50.6 24.1 107.2 37.5 166.9 37.5c59.7 0 116.3-13.4 166.9-37.5l.6-2.5c66-30.3 117.2-79.6 156.4-141.2c39.3-61.7 59.8-140.3 59.8-195.2l4.6-4.6c.1-2.5 .1-4.9 .1-7.4c0-131.6-65.5-248-165.7-318.2l-3.5 .6Z" fill="#2d62de" fill-opacity=".48" transform="translate(396,395) translate(-396,-395)" style="animation: 12s linear infinite both a0_t;"/><path fill-rule="evenodd" clip-rule="evenodd" d="M703.4 403.8l-30-0.6c0-1.8 0-3.6 0-5.5c0-1.8 0-3.6 0-5.4l30-0.6c0 2 0 4 0 6c0 2.1 0 4.1 0 6.1Zm-0.5-24.1l-29.9 1.7c-0.3-3.6-0.5-7.3-0.9-10.9l29.9-2.9c.4 4 .7 8 .9 12.1Zm-2.3-24l-29.8 4c-0.5-3.6-1-7.2-1.6-10.7l29.5-5.3c.7 4 1.3 8 1.9 12Zm-4.2-23.8l-29.4 6.4c-0.7-3.5-1.6-7-2.5-10.5l29.1-7.6c1 3.9 1.9 7.8 2.8 11.7Zm-6.1-23.3c-1.2-3.8-2.4-7.7-3.7-11.5l-28.4 9.9c1.2 3.4 2.3 6.8 3.4 10.3l28.7-8.7Zm-7.9-22.8l-27.9 11c-1.4-3.4-2.8-6.8-4.2-10.1l27.5-12c1.6 3.7 3.1 7.4 4.6 11.1Zm-9.7-22l-27 13.1c-1.5-3.3-3.2-6.5-4.9-9.7l26.4-14.2c1.9 3.6 3.8 7.1 5.5 10.8Zm-11.4-21.3l-25.8 15.2c-1.9-3.1-3.8-6.2-5.7-9.3l25.2-16.2c2.2 3.4 4.3 6.8 6.3 10.3Zm-13-20.3l-24.6 17.2c-2-3-4.2-5.9-6.4-8.8l23.9-18.1c2.5 3.2 4.8 6.4 7.1 9.7Zm-14.5-19.2l-23.2 19.1c-2.3-2.8-4.7-5.6-7.1-8.3l22.4-19.9c2.7 3 5.3 6 7.9 9.1Zm-16.1-18l-21.6 20.8c-2.5-2.6-5.1-5.2-7.7-7.7l20.8-21.6c2.9 2.8 5.8 5.6 8.5 8.5Zm-17.3-16.7l-20 22.4c-2.7-2.4-5.4-4.7-8.2-7.1l19-23.1c3.1 2.5 6.2 5.1 9.2 7.8Zm-18.6-15.3l-18.2 23.9c-2.9-2.2-5.8-4.3-8.8-6.4l17.2-24.6c3.3 2.3 6.6 4.7 9.8 7.1Zm-19.8-13.8l-16.2 25.3c-3.1-2-6.1-3.9-9.3-5.7l15.2-25.9c3.5 2 6.9 4.1 10.3 6.3Zm-20.8-12.2l-14.2 26.4c-3.1-1.7-6.4-3.3-9.6-4.9l13.1-27c3.6 1.8 7.2 3.6 10.7 5.5Zm-21.7-10.5l-12 27.4c-3.3-1.4-6.7-2.8-10-4.1l10.9-28c3.7 1.5 7.5 3.1 11.1 4.7Zm-22.4-8.8l-9.8 28.3c-3.5-1.2-6.9-2.3-10.4-3.3l8.7-28.8c3.9 1.2 7.7 2.5 11.5 3.8Zm-23.1-7l-7.5 29c-3.5-0.9-7.1-1.7-10.6-2.5l6.4-29.3c3.9 .8 7.8 1.8 11.7 2.8Zm-23.5-5.2l-5.3 29.6c-3.5-0.7-7.1-1.2-10.7-1.7l4.1-29.7c4 .5 7.9 1.1 11.9 1.8Zm-23.9-3.2l-2.9 29.8c-3.6-0.3-7.2-0.6-10.9-0.8l1.8-30c4 .3 8 .6 12 1Zm-24.1-1.4l-0.5 30c-1.8-0.1-3.7-0.1-5.5-0.1c-1.8 0-3.6 0-5.5 .1l-0.5-30c2-0.1 4-0.1 6-0.1c2 0 4 0 6 .1Zm-24.1 .4l1.8 30c-3.7 .2-7.3 .5-10.9 .8l-2.9-29.8c4-0.4 8-0.7 12-1Zm-24 2.4l4.1 29.7c-3.6 .5-7.2 1-10.7 1.7l-5.3-29.6c4-0.7 7.9-1.3 11.9-1.8Zm-23.7 4.2l6.4 29.3c-3.5 .8-7.1 1.6-10.6 2.5l-7.5-29c3.9-1 7.8-2 11.7-2.8Zm-23.3 6l8.7 28.8c-3.5 1-6.9 2.1-10.4 3.3l-9.8-28.3c3.8-1.3 7.6-2.6 11.5-3.8Zm-22.8 7.9l10.9 28c-3.3 1.3-6.7 2.7-10 4.1l-12-27.4c3.6-1.6 7.4-3.2 11.1-4.7Zm-22.1 9.7l13.1 27c-3.2 1.6-6.5 3.2-9.6 4.9l-14.2-26.4c3.5-1.9 7.1-3.7 10.7-5.5Zm-21.2 11.4l15.2 25.9c-3.2 1.8-6.2 3.7-9.3 5.7l-16.2-25.3c3.4-2.2 6.8-4.3 10.3-6.3Zm-20.3 13l17.2 24.6c-3 2.1-5.9 4.2-8.8 6.4l-18.2-23.9c3.2-2.4 6.5-4.8 9.8-7.1Zm-19.2 14.6l19 23.1c-2.8 2.4-5.5 4.7-8.2 7.1l-20-22.4c3-2.7 6.1-5.3 9.2-7.8Zm-18 16l20.8 21.6c-2.6 2.5-5.2 5.1-7.7 7.7l-21.6-20.8c2.7-2.9 5.6-5.7 8.5-8.5Zm-16.7 17.4l22.4 19.9c-2.4 2.7-4.8 5.5-7.1 8.3l-23.2-19.1c2.6-3.1 5.2-6.1 7.9-9.1Zm-15.3 18.6l23.9 18.1c-2.2 2.9-4.4 5.8-6.4 8.8l-24.6-17.2c2.3-3.3 4.6-6.5 7.1-9.7Zm-13.8 19.7l25.2 16.2c-1.9 3.1-3.8 6.2-5.7 9.3l-25.8-15.2c2-3.5 4.1-6.9 6.3-10.3Zm-12.2 20.8l26.4 14.2c-1.7 3.2-3.4 6.4-4.9 9.7l-27-13.1c1.7-3.7 3.6-7.2 5.5-10.8Zm-10.6 21.7l27.5 12c-1.4 3.3-2.8 6.7-4.2 10.1l-27.9-11c1.5-3.7 3-7.4 4.6-11.1Zm-8.8 22.4l28.4 9.9c-1.2 3.4-2.3 6.8-3.4 10.3l-28.7-8.7c1.2-3.8 2.4-7.7 3.7-11.5Zm-7 23.1l29.1 7.6c-0.9 3.5-1.8 7-2.5 10.5l-29.4-6.4c.9-3.9 1.8-7.8 2.8-11.7Zm-5.1 23.5l29.5 5.3c-0.6 3.5-1.1 7.1-1.6 10.7l-29.8-4c.6-4 1.2-8 1.9-12Zm-3.3 23.9l29.9 2.9c-0.4 3.6-0.6 7.3-0.9 10.9l-29.9-1.7c.2-4.1 .5-8.1 .9-12.1Zm-1.4 24.1c0 2 0 4 0 6c0 2.1 0 4.1 0 6.1l30-0.6c0-1.8 0-3.6 0-5.5c0-1.8 0-3.6 0-5.4l-30-0.6Zm.5 24.1l29.9-1.7c.3 3.6 .5 7.2 .9 10.8l-29.9 2.9c-0.4-4-0.7-8-0.9-12Zm2.3 24l29.8-4.1c.5 3.6 1 7.2 1.6 10.8l-29.5 5.2c-0.7-3.9-1.3-7.9-1.9-11.9Zm4.2 23.7l29.4-6.4c.7 3.6 1.6 7.1 2.5 10.6l-29.1 7.6c-1-3.9-1.9-7.8-2.8-11.8Zm6.1 23.4l28.7-8.7c1.1 3.4 2.2 6.9 3.4 10.3l-28.4 9.8c-1.3-3.8-2.5-7.6-3.7-11.4Zm7.9 22.7l27.9-10.9c1.4 3.4 2.8 6.7 4.2 10l-27.5 12.1c-1.6-3.7-3.1-7.4-4.6-11.2Zm9.7 22.1l27-13.1c1.5 3.3 3.2 6.5 4.9 9.7l-26.4 14.1c-1.9-3.5-3.8-7.1-5.5-10.7Zm11.4 21.3l25.8-15.2c1.9 3.1 3.8 6.2 5.7 9.2l-25.2 16.2c-2.2-3.4-4.3-6.8-6.3-10.2Zm13 20.2l24.6-17.1c2 2.9 4.2 5.9 6.4 8.8l-23.9 18.1c-2.5-3.2-4.8-6.5-7.1-9.8Zm14.5 19.2l23.2-19c2.3 2.8 4.7 5.6 7.1 8.3l-22.4 19.9c-2.7-3-5.3-6-7.9-9.2Zm16.1 18.1l21.6-20.8c2.5 2.6 5.1 5.1 7.7 7.7l-20.8 21.6c-2.9-2.8-5.8-5.6-8.5-8.5Zm17.3 16.7c3 2.6 6.1 5.2 9.2 7.8l19-23.2c-2.8-2.3-5.5-4.6-8.2-7.1l-20 22.5Zm18.6 15.3l18.2-23.9c2.9 2.1 5.8 4.3 8.8 6.4l-17.2 24.6c-3.3-2.3-6.6-4.7-9.8-7.1Zm19.8 13.8l16.2-25.3c3.1 2 6.1 3.9 9.3 5.7l-15.2 25.9c-3.5-2.1-6.9-4.2-10.3-6.3Zm20.8 12.2l14.2-26.5c3.1 1.7 6.4 3.4 9.6 5l-13.1 27c-3.6-1.8-7.2-3.6-10.7-5.5Zm21.7 10.5l12-27.5c3.3 1.5 6.7 2.9 10 4.2l-10.9 27.9c-3.7-1.4-7.5-3-11.1-4.6Zm22.4 8.8l9.8-28.4c3.5 1.2 6.9 2.4 10.4 3.4l-8.7 28.7c-3.9-1.2-7.7-2.4-11.5-3.7Zm23.1 7l7.5-29c3.5 .9 7.1 1.7 10.6 2.5l-6.4 29.3c-3.9-0.9-7.8-1.8-11.7-2.8Zm23.5 5.1l5.3-29.5c3.5 .6 7.1 1.2 10.7 1.7l-4.1 29.7c-4-0.6-7.9-1.2-11.9-1.9Zm23.9 3.3l2.9-29.9c3.6 .4 7.2 .7 10.9 .9l-1.8 29.9c-4-0.2-8-0.5-12-0.9Zm24.1 1.4l.5-30c1.9 0 3.7 .1 5.5 .1c1.8 0 3.7-0.1 5.5-0.1l.5 30c-2 0-4 .1-6 .1c-2 0-4-0.1-6-0.1Zm24.1-0.5l-1.8-29.9c3.7-0.2 7.3-0.5 10.9-0.9l2.9 29.9c-4 .4-8 .7-12 .9Zm24-2.3l-4.1-29.7c3.6-0.5 7.2-1.1 10.7-1.7l5.3 29.5c-4 .7-7.9 1.4-11.9 1.9Zm23.7-4.2l-6.4-29.3c3.5-0.8 7.1-1.6 10.6-2.5l7.5 29c-3.9 1-7.8 1.9-11.7 2.8Zm23.3-6.1c3.9-1.1 7.7-2.4 11.5-3.7l-9.8-28.3c-3.5 1.1-6.9 2.3-10.4 3.3l8.7 28.7Zm22.8-7.9l-10.9-27.9c3.3-1.3 6.7-2.7 10-4.2l12 27.5c-3.6 1.6-7.4 3.2-11.1 4.6Zm22.1-9.6l-13.1-27c3.2-1.6 6.5-3.3 9.6-5l14.2 26.5c-3.5 1.9-7.1 3.7-10.7 5.5Zm21.2-11.4l-15.2-25.9c3.2-1.8 6.2-3.7 9.3-5.7l16.2 25.3c-3.4 2.1-6.8 4.2-10.3 6.3Zm20.3-13c3.3-2.3 6.6-4.7 9.8-7.1l-18.2-23.9c-2.9 2.2-5.8 4.3-8.8 6.4l17.2 24.6Zm19.2-14.6l-19-23.2c2.8-2.3 5.5-4.6 8.2-7.1l20 22.5c-3 2.6-6.1 5.2-9.2 7.8Zm18-16l-20.8-21.6c2.6-2.6 5.2-5.1 7.7-7.7l21.6 20.8c-2.7 2.9-5.6 5.7-8.5 8.5Zm16.7-17.4l-22.4-19.9c2.4-2.7 4.8-5.5 7.1-8.3l23.2 19c-2.6 3.2-5.2 6.2-7.9 9.2Zm15.3-18.6l-23.9-18.1c2.2-2.9 4.4-5.9 6.4-8.8l24.6 17.1c-2.3 3.3-4.6 6.6-7.1 9.8Zm13.8-19.8l-25.2-16.2c1.9-3 3.8-6.1 5.7-9.2l25.8 15.2c-2 3.4-4.1 6.8-6.3 10.2Zm12.2-20.8l-26.4-14.1c1.7-3.2 3.4-6.4 4.9-9.7l27 13.1c-1.7 3.6-3.6 7.2-5.5 10.7Zm10.6-21.6l-27.5-12.1c1.4-3.3 2.8-6.6 4.2-10l27.9 10.9c-1.5 3.8-3 7.5-4.6 11.2Zm8.8-22.5l-28.4-9.8c1.2-3.4 2.3-6.9 3.4-10.3l28.7 8.7c-1.2 3.8-2.4 7.6-3.7 11.4Zm7-23l-29.1-7.6c.9-3.5 1.8-7 2.5-10.6l29.4 6.4c-0.9 4-1.8 7.9-2.8 11.8Zm5.1-23.6l-29.5-5.2c.6-3.6 1.1-7.2 1.6-10.8l29.8 4.1c-0.6 4-1.2 8-1.9 11.9Zm3.3-23.9l-29.9-2.9c.4-3.6 .6-7.2 .9-10.8l29.9 1.7c-0.2 4-0.5 8-0.9 12Z" fill="#4fa8e8" fill-opacity=".24" transform="translate(396.5,397.7) translate(-396.5,-397.7)" style="animation: 12s linear infinite both a1_t;"/></svg>